<svg xmlns="http://www.w3.org/2000/svg" width="19" height="21" viewBox="0 0 19 21"><g><g><path fill="#f14b17" d="M17.35 13.153l-1.53-1.499-6.879-6.746a3.286 3.286 0 0 0-4.577.008 3.136 3.136 0 0 0-.009 4.488l6.879 6.75a.728.728 0 0 0 1.02 0 .7.7 0 0 0 0-1.002l-6.88-6.748a1.742 1.742 0 0 1 0-2.497 1.824 1.824 0 0 1 2.548 0l6.88 6.745 1.53 1.5a3.138 3.138 0 0 1-.001 4.499 3.29 3.29 0 0 1-4.587 0l-1.274-1.252-7.134-6.995-.51-.5a4.532 4.532 0 0 1 .051-6.448c1.81-1.773 4.736-1.794 6.574-.047l7.643 7.494a.735.735 0 0 0 .696.184.715.715 0 0 0 .51-.5.7.7 0 0 0-.187-.683L10.47 2.409C8.076.072 4.205.077 1.817 2.42a5.924 5.924 0 0 0-.01 8.484l7.644 7.498 1.275 1.247c1.84 1.733 4.755 1.705 6.558-.064a4.53 4.53 0 0 0 .065-6.43z"/></g></g></svg>