<svg xmlns="http://www.w3.org/2000/svg" width="22" height="21" viewBox="0 0 22 21"><g><g><path fill="#f14b17" d="M0 17.15V6.134c.013-.04.031-.08.037-.119C.282 4.422 1.15 3.3 2.616 2.646a3.99 3.99 0 0 1 1.67-.328c.265.002.53 0 .802 0v-.773c.002-.536.348-.917.84-.921.5-.004.853.378.855.928v.75h8.14l.001-.773c.003-.53.363-.91.856-.905.485.004.835.38.84.9v.794c.304 0 .585-.002.866.002a4.237 4.237 0 0 1 4.074 3.135c.06.222.099.452.147.678v11.018c-.013.04-.032.078-.037.119-.285 2.108-2.045 3.686-4.163 3.69-4.435.01-8.87.01-13.306 0a4.214 4.214 0 0 1-4.04-3.09c-.066-.238-.108-.48-.161-.72zM10.853 4.014l-6.528.001c-1.524 0-2.629 1.108-2.629 2.636v9.976c0 1.54 1.102 2.64 2.642 2.642H17.37c1.54-.001 2.64-1.102 2.64-2.644V6.67c0-1.556-1.097-2.655-2.652-2.655l-6.506-.001zm-.005 5.086c-.282 0-.564.004-.846-.003a.843.843 0 0 1-.844-.85.842.842 0 0 1 .854-.841 98.374 98.374 0 0 1 1.672 0c.496.004.867.375.865.851-.003.476-.375.836-.875.843-.275.003-.55 0-.826 0zm5.791-1.694c.275 0 .55-.005.825 0 .483.01.85.376.85.844a.841.841 0 0 1-.847.847c-.564.007-1.128.007-1.693 0a.845.845 0 1 1-.003-1.691c.29-.005.579 0 .868 0zM5.08 10.793c.282 0 .564-.003.846 0 .485.008.853.372.858.839.004.476-.367.85-.861.855-.557.007-1.115.007-1.672 0a.845.845 0 0 1-.858-.858c.006-.467.376-.828.861-.836.275-.003.55 0 .825 0zm5.796 0c.275 0 .55-.004.825.003a.843.843 0 0 1 .849.845c0 .467-.368.84-.85.846-.564.007-1.128.007-1.692 0a.845.845 0 1 1 0-1.691c.29-.007.579-.003.868-.003zm5.735 0c.283 0 .565-.003.847 0 .485.008.853.372.858.839.004.476-.367.85-.861.855-.557.007-1.115.007-1.672 0a.845.845 0 0 1-.858-.858c.006-.467.376-.828.861-.836.275-.003.55 0 .825 0zM5.091 15.879c-.282 0-.564.004-.846 0-.483-.01-.85-.376-.853-.844a.84.84 0 0 1 .845-.849 70.601 70.601 0 0 1 1.693 0 .847.847 0 0 1 .008 1.693c-.282.004-.564 0-.847 0zm5.755-1.695c.282 0 .564-.003.846.001.485.008.853.37.857.839.004.477-.368.85-.863.855-.557.004-1.114.004-1.671 0a.845.845 0 0 1-.857-.839c-.003-.479.368-.848.863-.855.275-.003.55-.001.825-.001z"/></g></g></svg>