<svg xmlns="http://www.w3.org/2000/svg" width="31" height="31" viewBox="0 0 31 31"><g><g><path fill="#f14b17" d="M20.89.188c.722.242 1.018.754.966 1.5-.02.289-.003.579-.003.909.415 0 .812-.007 1.21 0 1.872.03 3.423.755 4.626 2.188.901 1.072 1.355 2.328 1.381 3.728.014.753.004 1.505.004 2.256 0 1.01-.442 1.453-1.44 1.453H2.595v.333c0 3.468-.002 6.938 0 10.407.001 2.123 1.582 3.7 3.71 3.704 1.895.002 3.79-.003 5.685.002.828.003 1.39.717 1.198 1.498-.124.508-.578.9-1.109.901-2.075.01-4.153.057-6.226-.015-2.847-.097-5.24-2.36-5.61-5.194-.009-.068-.037-.134-.055-.2V8.01c.018-.066.045-.132.055-.2.21-1.488.877-2.733 2.005-3.72 1.138-.998 2.474-1.489 3.986-1.494.386-.004.773 0 1.175 0 0-.333.017-.621-.003-.91C7.355.94 7.65.43 8.372.187h.482c.72.242 1.017.754.966 1.5-.02.296-.004.59-.004.887h9.63c0-.308.016-.6-.004-.888-.051-.745.244-1.257.966-1.499h.482zm5.745 9.614c.433-3.487-1.858-5.188-4.783-4.754 0 .358.003.717 0 1.077-.005.753-.518 1.29-1.218 1.282-.685-.008-1.184-.543-1.188-1.282-.003-.366 0-.733 0-1.101h-9.63c0 .379.002.739 0 1.099-.005.753-.516 1.29-1.215 1.284-.686-.004-1.187-.542-1.191-1.279-.003-.367 0-.735 0-1.096-3.72-.432-5.192 2.09-4.767 4.77h23.992zM21.913 31c-.711-.161-1.443-.26-2.13-.491-3.63-1.225-5.986-4.93-5.59-8.734.408-3.925 3.328-6.976 7.227-7.55 4.46-.658 8.782 2.531 9.465 6.982.036.234.077.469.115.706v1.323c-.018.087-.042.17-.054.259-.493 3.442-2.362 5.797-5.612 7.019-.666.252-1.397.329-2.097.486h-1.324zm.676-14.444c-3.312-.004-6.02 2.683-6.032 5.989-.012 3.325 2.683 6.04 6.003 6.048 3.311.005 6.02-2.685 6.032-5.99.013-3.326-2.682-6.041-6.003-6.047zm-15.18-.716c-.004.66-.55 1.2-1.211 1.197a1.204 1.204 0 0 1 .015-2.406 1.205 1.205 0 0 1 1.195 1.21zm4.813-.002a1.207 1.207 0 0 1-1.207 1.199 1.204 1.204 0 1 1 1.208-1.199zm-4.814 4.815A1.206 1.206 0 0 1 6.2 21.852a1.203 1.203 0 1 1 1.208-1.197zm4.814.007a1.206 1.206 0 0 1-1.215 1.19 1.202 1.202 0 1 1 1.215-1.19zm11.556.71c.397 0 .756-.002 1.115 0 .756.004 1.295.51 1.291 1.21-.003.689-.538 1.192-1.273 1.197-.762.003-1.524.004-2.286 0-.74-.005-1.248-.51-1.253-1.247a175.52 175.52 0 0 1 0-2.317c.005-.713.514-1.243 1.19-1.25.69-.005 1.208.527 1.216 1.254.003.371 0 .742 0 1.153z"/></g></g></svg>