<svg xmlns="http://www.w3.org/2000/svg" width="36" height="31" viewBox="0 0 36 31"><g><g><path fill="#f14b17" d="M36 24.18c-.181.696-.393 1.378-.853 1.953-.82 1.026-1.88 1.57-3.19 1.61-.456.015-.914.016-1.37-.001-.229-.008-.33.065-.424.281a4.108 4.108 0 0 1-4.1 2.46 4.135 4.135 0 0 1-3.638-3.104c-.524-2.082.62-4.188 2.663-4.9 1.975-.692 4.2.273 5.056 2.213.115.261.245.33.504.317.41-.02.822 0 1.233-.007.78-.016 1.373-.591 1.374-1.37.006-3.716.023-7.432-.007-11.148-.017-2.062-1.78-3.878-3.839-3.93-2.236-.056-4.476-.016-6.714-.016-.031 0-.063.015-.127.031v.402c0 3.03.002 6.06-.002 9.088 0 1.015-.88 1.686-1.798 1.383a1.365 1.365 0 0 1-.938-1.228c-.01-.218-.003-.435-.003-.652V4.629c0-1.048-.533-1.581-1.578-1.581-4.34-.002-8.679-.002-13.018 0-1.046 0-1.577.533-1.577 1.58v18.796c0 1.049.533 1.578 1.582 1.58.342 0 .686-.014 1.027.005.258.014.39-.055.504-.317a4.103 4.103 0 0 1 4.562-2.353c1.903.4 3.284 2.088 3.289 4.021.005 1.945-1.343 3.613-3.261 4.044-1.85.416-3.815-.58-4.594-2.348-.105-.239-.217-.312-.472-.317-.739-.015-1.501.034-2.21-.131-1.706-.395-2.72-1.535-3.102-3.24-.015-.066-.044-.127-.067-.188V3.87c.02-.039.048-.077.057-.117.435-2.126 2.04-3.45 4.192-3.45 4.397-.002 8.794-.002 13.191 0 2.421.002 4.211 1.803 4.216 4.233v1.256h.403c2.067 0 4.134-.01 6.201.002a6.846 6.846 0 0 1 6.59 5.074c.098.363.16.732.238 1.1v12.213zm-25.502.826a1.372 1.372 0 0 0-1.361 1.377 1.375 1.375 0 0 0 1.377 1.364 1.376 1.376 0 0 0 1.362-1.38 1.373 1.373 0 0 0-1.378-1.361zm17.277 1.364a1.372 1.372 0 0 0-1.375-1.364 1.373 1.373 0 0 0-1.364 1.375c.002.753.622 1.369 1.375 1.366a1.377 1.377 0 0 0 1.364-1.377zm-16.037-6.855c-1.324 0-2.648.006-3.971-.004A1.363 1.363 0 0 1 6.4 18.277a1.373 1.373 0 0 1 1.405-1.506c2.625 0 5.249-.002 7.873 0 .75.002 1.332.525 1.402 1.234.068.701-.4 1.334-1.1 1.48-.133.028-.272.028-.409.028-1.277.002-2.555.002-3.833.002zm13.297-5.369c0-.49-.006-.983.002-1.474.011-.786.598-1.383 1.354-1.39.773-.005 1.375.593 1.383 1.396.009.87 0 1.738.003 2.605.002.888.522 1.438 1.399 1.488.785.044 1.357.643 1.34 1.405-.017.755-.626 1.334-1.408 1.34-2.131.009-4.001-1.792-4.068-3.93-.015-.479-.002-.96-.002-1.44h-.003zm-6.594 10.86c.297 0 .593-.011.89.001.734.03 1.31.627 1.316 1.355a1.362 1.362 0 0 1-1.322 1.381c-.581.016-1.163.016-1.744 0a1.361 1.361 0 0 1-1.316-1.387c.009-.73.585-1.322 1.322-1.349.284-.012.57-.001.854-.001z"/></g></g></svg>