<svg xmlns="http://www.w3.org/2000/svg" width="21" height="21" viewBox="0 0 21 21"><g><g><path fill="#f14b17" d="M14.79 7.555c.31.308.31.811 0 1.121l-5.317 5.318a.792.792 0 0 1-1.121 0L5.82 11.462a.792.792 0 1 1 1.12-1.12l1.972 1.968 4.758-4.755a.792.792 0 0 1 1.12 0zm5.504 3.298A10.141 10.141 0 0 1 10.147 21 10.14 10.14 0 0 1 0 10.853 10.141 10.141 0 0 1 10.147.707c5.609 0 10.147 4.54 10.147 10.146zm-1.586 0c0-4.731-3.83-8.56-8.561-8.56a8.556 8.556 0 0 0-8.562 8.56c0 4.732 3.83 8.56 8.562 8.56a8.556 8.556 0 0 0 8.561-8.56z"/></g></g></svg>