<svg xmlns="http://www.w3.org/2000/svg" width="31" height="31" viewBox="0 0 31 31"><g><g><path fill="#f14b17" d="M14.508.68h1.303c.654.08 1.312.137 1.963.239C24.53 1.976 29.12 7.535 30.077 13.026c.1.578.162 1.166.242 1.75v1.774c-.017.096-.042.19-.05.286-.315 3.725-1.746 6.954-4.34 9.644-2.362 2.447-5.25 3.89-8.624 4.352-.496.067-.996.113-1.494.169h-1.303c-.096-.017-.192-.045-.288-.049-1.078-.053-2.145-.203-3.173-.52C5.026 28.564 1.525 24.432.241 18.334.121 17.767.08 17.185 0 16.61v-1.894c.018-.086.04-.17.054-.257.134-.804.214-1.623.408-2.414C1.164 9.179 2.68 6.78 4.797 4.75 6.992 2.647 9.613 1.398 12.604.916c.631-.103 1.27-.157 1.904-.235zm.642 27.873c6.927-.058 12.623-4.886 12.772-12.771.133-6.997-5.698-12.716-12.74-12.74-7.024-.027-12.9 5.71-12.786 12.72.127 7.777 5.724 12.714 12.754 12.791zm1.194-17.615c0 1.093-.006 2.19.007 3.282.002.15.067.322.158.443.24.314.38.659.43 1.053.017.13.079.282.17.374a692.415 692.415 0 0 0 3.51 3.52c.316.313.469.684.377 1.124a1.135 1.135 0 0 1-.811.9c-.467.143-.876.016-1.218-.328-1.082-1.078-2.168-2.154-3.24-3.246-.268-.273-.54-.447-.94-.514-1.298-.215-1.842-1.866-.983-2.878a.738.738 0 0 0 .164-.438c.01-2.208.003-4.418.009-6.627.002-.9.763-1.457 1.584-1.177.488.166.779.591.781 1.169.005 1.113.002 2.228.002 3.343z"/></g></g></svg>