<svg xmlns="http://www.w3.org/2000/svg" width="22" height="20" viewBox="0 0 22 20"><g><g><path fill="#f14b17" d="M0 14.745l.075-.176a.847.847 0 0 1 1.62.283c.053.63.355.91.982.91.226 0 .453-.008.678.003.13.006.194-.032.252-.157.462-.989 1.244-1.534 2.336-1.534 1.083 0 1.855.547 2.33 1.52.034.067.113.16.172.16 1.053.011 2.105.007 3.18.007l.165-1.454.539-4.844c.168-1.524.346-3.047.497-4.572.142-1.43-1.053-2.702-2.529-2.703-2.544-.007-5.089-.002-7.633-.006-.119 0-.242-.007-.356-.036a.84.84 0 0 1-.607-.907.85.85 0 0 1 .796-.748c.105-.008.212-.003.318-.003 2.48 0 4.961-.004 7.442 0C12.31.492 14 1.858 14.442 3.867c.124.559.107 1.121.02 1.713h4.607c1.353 0 2.345.81 2.614 2.132.005.027.024.05.036.074v.678c-.015.061-.036.12-.043.182-.078.608-.153 1.219-.23 1.829-.192 1.533-.398 3.067-.572 4.603-.158 1.403-1.207 2.377-2.616 2.38-.537.004-1.074.004-1.61-.001-.111 0-.173.024-.224.136-.458 1.003-1.242 1.555-2.343 1.553-1.1 0-1.88-.557-2.349-1.554a.267.267 0 0 0-.196-.127c-1.018-.008-2.036-.003-3.053-.008-.11 0-.158.037-.203.135-.458 1.001-1.241 1.556-2.342 1.554-1.1 0-1.884-.553-2.342-1.556-.045-.1-.096-.135-.204-.133-.296.006-.593.009-.89 0-.82-.026-1.48-.368-1.987-1.013-.277-.353-.405-.768-.515-1.192v-.507zm13.518-.635c.071-.004.112 0 .153-.008 1.245-.154 2.232.395 2.765 1.533.029.061.13.12.2.122.558.01 1.116.008 1.674.004.462-.004.804-.314.862-.771l.11-.884.214-1.738c-.38 0-.74.008-1.098-.002-.232-.008-.47-.014-.694-.065-1.35-.31-2.142-1.527-1.953-2.963.09-.678.155-1.358.232-2.047h-1.708l-.757 6.82zm6.191-3.452l.08-.613c.076-.601.158-1.203.225-1.808.053-.472-.251-.908-.709-.943-.532-.038-1.069-.008-1.617-.008-.09.837-.19 1.664-.265 2.492-.04.434.265.839.693.871.525.04 1.055.009 1.593.009zM6.786 16.603a.853.853 0 0 0-.854-.842.852.852 0 0 0-.841.855.85.85 0 0 0 .854.842.85.85 0 0 0 .841-.855zm7.305.855a.85.85 0 0 0 .84-.858.853.853 0 0 0-.86-.839c-.465.007-.835.407-.833.897.001.43.403.805.853.8zM0 4.56c.171-.509.532-.69 1.058-.685 1.618.016 3.237.006 4.856.008.616 0 1.025.574.822 1.137-.124.344-.441.559-.843.559-1.315.001-2.63 0-3.944 0-.297 0-.595-.014-.89.002C.532 5.615.17 5.41 0 4.9v-.34zm0 3.395c.171-.51.531-.695 1.058-.685 1.06.02 2.12.003 3.18.008.413 0 .732.263.829.658a.816.816 0 0 1-.425.926 1.09 1.09 0 0 1-.467.105c-1.039.01-2.078-.01-3.117.012C.532 8.99.171 8.804 0 8.294v-.338zm0 3.393c.171-.507.531-.708 1.058-.683.48.021.96.002 1.441.005.517.001.893.363.894.848 0 .485-.377.846-.893.849-.48.002-.962-.016-1.442.005-.526.023-.887-.176-1.058-.683v-.341z"/></g></g></svg>