<svg xmlns="http://www.w3.org/2000/svg" width="30" height="30" viewBox="0 0 30 30"><g><g><path fill="#f14b17" d="M.345 24.813V5.678c.018-.055.042-.108.05-.163C.732 3.335 1.919 1.8 3.935.929 4.436.713 4.998.633 5.533.491h19.135c.053.016.105.043.16.051a5.744 5.744 0 0 1 4.867 4.383c.06.249.107.502.16.753v19.135c-.017.054-.042.105-.05.16-.351 2.227-1.566 3.783-3.65 4.63-.472.193-.99.269-1.487.396H5.533c-.054-.018-.106-.042-.161-.051-2.45-.405-4.053-1.793-4.806-4.158-.1-.317-.148-.651-.22-.977zm2.306-9.597v8.901c0 2.073 1.505 3.576 3.581 3.578h17.72c2.097 0 3.597-1.498 3.597-3.59V6.387c0-2.095-1.498-3.59-3.596-3.59-5.896-.003-11.793-.003-17.69 0-2.117 0-3.612 1.49-3.612 3.601v8.818zm18.212-6.717c-.007.644-.272 1.356-.757 1.997-.66.873-1.314 1.751-1.972 2.624-.085.115-.172.202-.066.376.103.17.208.214.39.19 1.153-.142 2.304-.302 3.46-.41 1.334-.125 2.416.383 3.17 1.484.754 1.105.858 2.315.231 3.493a75.37 75.37 0 0 1-2.503 4.337c-.68 1.094-1.743 1.61-3.026 1.553-1.357-.06-2.378-.725-2.962-1.958-.503-1.067-.94-2.163-1.4-3.248-.066-.156-.13-.244-.326-.244-.194.001-.262.083-.328.241a361.56 361.56 0 0 1-1.285 3.016c-.587 1.362-1.624 2.136-3.104 2.194-1.417.055-2.48-.607-3.188-1.841-.741-1.288-1.497-2.568-2.229-3.862-1.183-2.094-.02-4.676 2.34-5.111.596-.111 1.24-.01 1.856.043.87.079 1.735.2 2.6.314.181.023.265-.04.365-.185.114-.172.028-.26-.059-.377-.686-.911-1.386-1.817-2.051-2.745-1.473-2.051-.445-4.817 2.005-5.415.23-.056.474-.088.711-.09a366.55 366.55 0 0 1 4.725-.002c1.879.015 3.413 1.586 3.403 3.626zm-5.75-1.323c-.73 0-1.458.007-2.188-.003-.517-.008-.923.18-1.159.646-.232.461-.131.889.171 1.292.665.877 1.328 1.76 1.984 2.648.1.134.188.181.356.135a3.1 3.1 0 0 1 1.65 0c.146.04.238.02.337-.113.672-.911 1.357-1.812 2.034-2.72.287-.387.357-.806.135-1.245-.226-.444-.607-.644-1.103-.641-.74.004-1.478.001-2.217.001zm-7.11 8.375c-.447.015-.8.183-1.027.558-.247.408-.222.82.013 1.228.75 1.295 1.498 2.591 2.246 3.888.241.418.602.646 1.087.622.485-.026.826-.288 1.017-.732.452-1.047.9-2.096 1.337-3.15.034-.084-.007-.228-.061-.315-.213-.338-.54-.637-.65-1.003-.163-.55-.459-.717-1.002-.755-.995-.069-1.983-.223-2.96-.34zm15.433 1.164c-.044-.672-.609-1.222-1.263-1.153a133.51 133.51 0 0 0-3.514.43c-.083.009-.195.106-.221.184a3.878 3.878 0 0 1-.86 1.483c-.058.063-.092.211-.06.289a212.6 212.6 0 0 0 1.362 3.2c.189.435.536.679 1.009.699.471.02.83-.199 1.068-.606.754-1.304 1.51-2.606 2.254-3.914.106-.189.151-.408.225-.612zm-7.184-1.476a1.156 1.156 0 0 0-1.159-1.146 1.154 1.154 0 0 0-1.145 1.158c.004.633.526 1.15 1.159 1.146a1.157 1.157 0 0 0 1.145-1.158zM6.107 7.175a1.152 1.152 0 1 1 .003-2.302 1.152 1.152 0 0 1-.003 2.302zm19.136-1.161a1.154 1.154 0 0 1-1.143 1.16 1.152 1.152 0 1 1 1.143-1.16zM7.261 24.23a1.152 1.152 0 1 1-2.305.01 1.152 1.152 0 0 1 2.305-.01zm17.982.004a1.153 1.153 0 0 1-2.303.005c-.001-.636.515-1.154 1.15-1.155.634 0 1.152.515 1.153 1.15z"/></g></g></svg>