<svg xmlns="http://www.w3.org/2000/svg" width="17" height="20" viewBox="0 0 17 20"><g><g><path fill="#fff" d="M7.64.106h1.193c.372.056.752.081 1.116.17 3.369.807 5.501 2.893 6.366 6.247.245.949.319 1.924.098 2.897-.231 1.014-.658 1.954-1.142 2.866-1.171 2.21-2.608 4.244-4.163 6.198-.43.54-.977.922-1.632 1.14-.26.086-.53.133-.797.197h-.73c-.056-.01-.112-.03-.168-.038-.926-.143-1.705-.561-2.278-1.304a89.723 89.723 0 0 1-2.201-2.963C2.332 14.15 1.437 12.74.779 11.19.386 10.266.07 9.316.064 8.3c-.013-2.127.76-3.954 2.183-5.51C3.382 1.545 4.77.707 6.413.315 6.816.22 7.231.175 7.64.106zm.665 1.522c-.364.035-.733.04-1.089.111-2.742.548-4.543 2.16-5.368 4.832-.245.794-.346 1.62-.17 2.451.192.912.586 1.749 1.02 2.563 1.132 2.131 2.536 4.08 4.03 5.967.795 1.003 2.4.97 3.192-.051a78.757 78.757 0 0 0 1.928-2.593c.936-1.318 1.79-2.688 2.473-4.158.53-1.14.8-2.301.568-3.578-.572-3.163-3.352-5.52-6.584-5.544zm.033 3.464c1.858.001 3.268 1.423 3.267 3.292-.001 1.776-1.482 3.238-3.279 3.235-1.78-.001-3.264-1.476-3.26-3.24.003-1.865 1.42-3.288 3.272-3.287zm.005 1.525c-.94-.003-1.729.767-1.738 1.696-.01.987.747 1.758 1.726 1.76.982.002 1.736-.757 1.735-1.749-.002-.93-.783-1.706-1.723-1.707z"/></g></g></svg>