<svg xmlns="http://www.w3.org/2000/svg" width="40" height="40" viewBox="0 0 40 40"><g><g><path d="M39.01 40H1.016A1.556 1.556 0 0 1 0 38.984v-1.875c.338-.885 1.054-1.07 1.911-.976V15.43c-.879.159-1.547-.085-1.911-.917v-1.954c.314-.748.886-.977 1.677-.969 3.15.03 6.3.013 9.449.013h.5v-.665-.602c-.851-.19-1.283-.602-1.293-1.285-.02-1.315-.016-2.63-.001-3.944.006-.58.393-1.099.939-1.198.346-.063.361-.228.36-.502-.003-1.146.01-2.288.017-3.434h16.73v1.234c.116.04.14.054.164.054.976.003 1.952.003 2.928.009 1.31.006 2.087.778 2.094 2.087.007 1.17.005 2.344 0 3.514-.004 1.373-.78 2.14-2.163 2.143-.557.002-1.114.002-1.68.002-.113.788-.556 1.213-1.285 1.31v1.277h.503c3.136 0 6.273.017 9.41-.013.792-.008 1.363.222 1.677.97v1.953c-.36.856-1.066 1.058-1.918.934v20.687c.865-.096 1.58.092 1.918.975v1.875c-.172.506-.514.84-1.016 1.016zM18.746 15.475v20.628h2.528V15.475h-2.528zm-15.501.003v20.614h2.529V15.478h-2.53zm3.882.006v20.61H9.66v-20.61H7.127zm7.757-.009v20.624h2.515V15.475h-2.515zm10.259 20.638V15.486h-2.517v20.627h2.517zm7.756-.011v-20.61h-2.533v20.61h2.533zm1.359-20.624v20.614h2.518V15.478h-2.518zm-23.265.002v20.614h2.53V15.48h-2.53zM29.02 36.1V15.493h-2.515v20.605h2.515zm9.714-23.192H1.318v1.275h36.858c.104 0 .22.028.31-.008.094-.04.23-.134.235-.213.026-.346.012-.694.012-1.054zm-.018 24.543H1.325v1.226h37.39V37.45zM27.097 1.305H12.92V3.82h14.176V1.305zm.021 9.029H12.931v1.247h14.155c.013-.069.03-.118.03-.166.003-.35.002-.703.002-1.081zM28.4 2.559c0 .35.01.672-.004.994-.008.205.06.286.272.333.643.142 1.013.621 1.031 1.287.008.26.002.521.002.78v1.76c.691 0 1.327.012 1.962-.004.356-.008.609-.264.612-.634.013-1.286.012-2.576.001-3.862-.003-.371-.246-.642-.599-.647-1.076-.018-2.153-.007-3.277-.007zm-15.524 6.44V5.161H11.66v3.836h1.216zm1.358-3.844v3.839h1.232V5.155h-1.232zm3.805 3.843V5.162h-1.215v3.836h1.215zm1.364-3.85v3.84h1.22v-3.84h-1.22zm2.581.002V8.99h1.222V5.15h-1.222zm3.8 3.847V5.162H24.57v3.835h1.214zm1.353-3.84v3.825h1.243V5.157h-1.243z"/></g></g></svg>