<svg xmlns="http://www.w3.org/2000/svg" width="41" height="41" viewBox="0 0 41 41"><g><g><path d="M7.646 40.999c-.744-.198-1.503-.352-2.225-.607-.68-.243-.755-.763-.244-1.278 1.037-1.042 2.09-2.066 3.117-3.116 1.037-1.062.747-2.691-.562-3.272-.78-.346-1.614-.173-2.304.505-.982.967-1.953 1.946-2.928 2.918-.075.073-.146.15-.224.22-.442.401-.916.315-1.18-.23a6.185 6.185 0 0 1-.6-3.32c.145-1.599.797-2.96 1.925-4.113 1.018-1.039 2.088-1.989 3.508-2.455.933-.306 1.88-.46 2.867-.38.207.016.444-.036.633-.126a20.305 20.305 0 0 0 5.785-4.161c.54-.552 1.093-1.092 1.632-1.629l-1.042-1.001c-.52.523-1.082 1.092-1.648 1.656-.486.483-.745.431-1.28.01-.745-.587-1.033-1.316-.934-2.228.035-.32-.1-.475-.416-.525-.458-.071-.802-.331-1.128-.66-2.807-2.816-5.63-5.616-8.439-8.428C.221 7.038.004 4.516 1.41 2.625a4.646 4.646 0 0 1 6.878-.664c.571.521 1.106 1.083 1.654 1.63 2.379 2.371 4.753 4.748 7.137 7.113.298.297.548.604.594 1.029.039.353.24.47.56.407 1.064-.218 1.728.388 2.335 1.115.278.334.266.676-.061 1.015-.493.508-1 1.003-1.501 1.503-.092.092-.178.188-.26.276l1.062 1.01c.341-.355.717-.77 1.114-1.162 1.197-1.186 2.308-2.442 3.185-3.883.422-.694.803-1.411 1.177-2.132.084-.16.09-.378.08-.567-.12-2.055.51-3.855 1.91-5.355.632-.677 1.298-1.363 2.068-1.86C31.31.83 33.42.695 35.578 1.63c.663.288.748.775.237 1.29-1.027 1.031-2.071 2.049-3.09 3.09-1.038 1.06-.792 2.642.49 3.261.788.38 1.651.217 2.343-.465.981-.967 1.952-1.943 2.928-2.917.074-.074.146-.15.223-.22.442-.405.921-.324 1.183.213a6.19 6.19 0 0 1 .603 3.32c-.144 1.63-.818 3.008-1.968 4.175-1.014 1.028-2.08 1.956-3.487 2.417-.858.28-1.732.432-2.633.367a1.93 1.93 0 0 0-1.053.215 20.784 20.784 0 0 0-5.403 3.896c-.5.5-1.002.997-1.59 1.58.152.105.3.179.41.288 3.664 3.647 7.334 7.289 10.972 10.962.517.523 1.07.927 1.725 1.236.213.101.417.28.553.473.579.828 1.132 1.671 1.69 2.513.304.458.276.72-.112 1.112a186.56 186.56 0 0 1-1.645 1.64c-.383.376-.635.404-1.082.11-.866-.569-1.73-1.143-2.588-1.724-.126-.087-.257-.2-.322-.332-.348-.703-.674-1.414-1.012-2.123a.926.926 0 0 0-.175-.249c-3.677-3.672-7.356-7.341-11.036-11.01-.036-.034-.078-.066-.141-.118-.692.683-1.384 1.36-2.064 2.045a19.752 19.752 0 0 0-3.778 5.383 1.334 1.334 0 0 0-.133.632c.134 2.255-.653 4.145-2.227 5.747-.89.905-1.812 1.76-3.054 2.154-.546.172-1.114.274-1.672.408H7.646zm5.792-21.631l5.738-5.709c-.186-.065-.35-.16-.521-.174-.326-.03-.656-.014-.985-.016-.793-.009-.9-.105-1.13-.857-.106-.342-.204-.737-.44-.975-2.804-2.838-5.634-5.647-8.458-8.465-.472-.47-1.015-.817-1.668-.992-2.187-.59-4.377 1.306-4.117 3.548.103.878.506 1.579 1.118 2.19 2.538 2.528 5.081 5.05 7.604 7.592.607.612 1.2 1.19 2.105 1.328.388.058.556.354.564.745.009.444.026.89.058 1.336.01.14.08.276.132.449zM6.707 39.462c1 .282 1.927.255 2.857 0 1.191-.325 2.057-1.111 2.889-1.964 1.595-1.635 2.195-3.54 1.675-5.79-.65-2.812-3.493-4.847-6.354-4.5-2.66.321-4.39 1.922-5.565 4.183-.536 1.03-.54 2.178-.208 3.357.134-.126.23-.211.322-.3.715-.714 1.422-1.435 2.147-2.139 1.938-1.88 4.945-1.097 5.635 1.489.331 1.242-.057 2.323-.954 3.227-.793.8-1.595 1.59-2.444 2.437zM38.978 7.209c-.236.266-.392.458-.57.631-.766.754-1.505 1.54-2.319 2.24-1.076.925-2.722.957-3.89.156a3.31 3.31 0 0 1-1.326-3.661c.183-.639.55-1.151 1.01-1.61.788-.785 1.577-1.567 2.406-2.391a5.192 5.192 0 0 0-2.886.001c-1.217.339-2.099 1.153-2.933 2.035-1.816 1.926-2.28 4.13-1.309 6.592 1.148 2.91 4.65 4.417 7.575 3.287 1.648-.638 2.852-1.819 3.766-3.268.749-1.19.87-2.527.476-4.012zM17.81 20.866c-2.014 2.068-4.033 4.125-6.575 5.428.775.574 1.6 1.055 2.254 1.707.656.653 1.139 1.478 1.714 2.25 1.31-2.526 3.373-4.554 5.45-6.562-.956-.947-1.876-1.863-2.843-2.823zm11.95-5.135c-.762-.562-1.593-1.042-2.25-1.695-.66-.658-1.146-1.489-1.718-2.257-1.245 2.384-3.143 4.333-5.049 6.16l2.841 2.828c1.84-1.928 3.817-3.797 6.176-5.036zm4.887 18.239L17.78 17.145l-.851.822L33.793 34.8c.278-.27.577-.56.853-.83zm-.26 2.109c.27.482.425 1.028.784 1.34.635.553 1.393.961 2.087 1.424l1.124-1.11c-.3-.451-.65-.884-.897-1.369-.36-.704-.947-1.093-1.648-1.353-.104-.039-.285-.018-.365.05-.365.316-.708.66-1.084 1.018z"/></g></g></svg>