<svg xmlns="http://www.w3.org/2000/svg" width="41" height="41" viewBox="0 0 41 41"><g><g><path d="M6.441.657c1.482.587 2.602 1.7 3.84 2.64.72.549 1.43 1.113 2.128 1.69.43.355.827.75 1.273 1.155.521-.38 1.217-.346 1.892-.348 3.244-.01 6.488-.008 9.732.002 1.429.004 2.416 1.01 2.419 2.443.004 2.231 0 4.465 0 6.696v.447c.153.008.268.019.382.019 1.931.001 3.862.003 5.792 0 .989-.002 1.605-.448 1.888-1.35.304-.97.014-2.08-.725-2.547-.275-.174-.627-.252-.955-.312-.477-.088-.724-.298-.702-.682.023-.404.307-.605.816-.577 1.803.103 3.194 1.904 2.939 3.78-.232 1.703-1.584 3.016-3.392 2.961-1.85-.055-3.704-.01-5.556-.01h-.457v2.179h.422c1.72.003 3.441-.001 5.162.004.423.001.67.23.684.597.014.38-.245.636-.675.659-.105.006-.21 0-.315 0H27.746v2.159h.478c2.93 0 5.858-.005 8.787.003 1.57.002 2.768.928 3.186 2.431.417 1.502-.168 3.122-1.473 3.862-.44.25-.977.36-1.484.446-.399.07-.668-.218-.684-.584-.016-.37.225-.621.63-.658.948-.084 1.493-.51 1.756-1.373.282-.923.033-2.001-.651-2.468-.308-.213-.721-.375-1.088-.378-3.112-.03-6.225-.016-9.338-.015-.025 0-.05.011-.107.027v2.142c.405 0 .82-.001 1.234.002.617.004 1.235-.008 1.85.021.47.022.66.228.664.612.003.304-.127.52-.432.564-.362.05-.73.075-1.096.081-.733.011-1.467.003-2.252.003v.434c0 1.996.002 3.992-.001 5.987-.002 1.493-.976 2.478-2.457 2.478-3.336.004-6.672.004-10.008-.004-.564 0-1.134-.02-1.614-.382-.948 1.183-2.241 1.94-3.38 2.875-.729.601-1.476 1.182-2.244 1.73-.473.34-1 .606-1.502.9h-.788c-1.547-.65-1.954-1.267-1.954-2.972V21.991v-.526c-.276 0-.497-.003-.718.001-.701.013-1.044.297-1.116 1.004-.05.494-.021.996-.034 1.493-.009.353 0 .711-.049 1.06-.058.417-.326.6-.717.547-.436-.057-.5-.406-.508-.73-.02-.8-.05-1.605.026-2.4.133-1.394 1.119-2.23 2.523-2.233h.593v-.53V9.159c0-1.971-.006-3.939.003-5.91.005-1.237.624-2.09 1.783-2.505.059-.02.112-.056.168-.086h.71zm20.003 19.462c-.975 0-1.93.007-2.885-.004a6.561 6.561 0 0 1-1.057-.081c-.384-.07-.541-.417-.397-.784.124-.316.375-.408.692-.407 1.077.004 2.154.003 3.231 0h.403v-2.18h-3.853c-1.195 0-2.39.002-3.586-.004-.423-.001-.653-.184-.705-.533-.064-.426.24-.722.762-.722 2.312-.003 4.624-.002 6.936-.002h.48v-.365c0-2.245.002-4.49 0-6.735-.001-.837-.419-1.245-1.27-1.245-3.35-.004-6.7-.004-10.049 0-.866 0-1.285.412-1.285 1.276v25.013c0 .866.413 1.275 1.283 1.275h10.049c.871 0 1.271-.402 1.272-1.279v-5.986-.387h-1.008c-1.708 0-3.416.011-5.123-.013-.231-.003-.53-.122-.67-.293-.112-.136-.116-.488-.014-.642.113-.167.403-.298.617-.3 1.918-.024 3.835-.014 5.753-.014h.416v-2.185h-8.455c-.13 0-.262.001-.393-.007-.347-.02-.516-.236-.562-.552a.594.594 0 0 1 .479-.668c.152-.033.313-.032.47-.032l7.999-.001h.47v-2.143zm-21.406.72h-.005c0 5.304-.005 10.607.006 15.91.002.721.054 1.444.133 2.16.08.734.732 1.042 1.38.681.239-.134.468-.29.685-.46 1.556-1.207 3.098-2.43 4.665-3.623.497-.378.704-.828.704-1.445.006-7.063.03-14.124.037-21.189.002-1.759-.044-3.517-.056-5.276-.004-.627-.206-1.086-.749-1.486-1.71-1.261-3.365-2.6-5.057-3.887-.718-.544-1.533-.198-1.705.698-.037.192-.037.39-.037.587-.002 5.776-.001 11.552-.001 17.33z"/></g></g></svg>