<svg xmlns="http://www.w3.org/2000/svg" width="28" height="41" viewBox="0 0 28 41"><g><g><path d="M.978 41c-.065-.18-.184-.361-.187-.545-.016-.897-.036-1.797.01-2.694.09-1.79 1.475-3.088 3.265-3.106.168-.003.336 0 .548 0 0-.463-.006-.883.001-1.302.009-.479.223-.698.704-.712.423-.01.847.012 1.269-.012.111-.007.288-.105.314-.196.606-2.118 1.195-4.24 1.795-6.386-3.691-1.704-6.24-4.437-7.462-8.322-.888-2.822-.8-5.655.22-8.437 1.996-5.449 7.28-9 13.063-8.69 6.064.328 11.016 4.517 12.321 10.274 1.425 6.287-1.838 12.624-7.706 15.175.082.308.164.622.252.936.495 1.764 1 3.527 1.48 5.296.077.286.196.383.484.366.382-.024.766-.013 1.15-.004.48.014.694.233.705.712.008.396.007.793.012 1.19 0 .022.021.045.037.076.386.036.783.036 1.167.109 1.43.273 2.509 1.468 2.588 2.915.051.949.03 1.901.017 2.851-.002.17-.12.338-.185.506H.978zm12.929-15.173c6.599.003 11.978-5.368 11.99-11.97.012-6.62-5.37-12.015-11.986-12.016-6.6-.003-11.982 5.371-11.99 11.972-.008 6.623 5.366 12.01 11.986 12.014zm11.86 14.047c0-.614.003-1.204-.002-1.798a3.487 3.487 0 0 0-.04-.552c-.147-.862-.943-1.557-1.826-1.598-.238-.01-.476-.004-.714-.004H4.16c-.968 0-1.79.473-1.968 1.34-.174.845-.133 1.737-.187 2.613h23.763zm-6.12-7.258l-1.723-6.142a13.271 13.271 0 0 1-8.026-.001l-1.72 6.143h11.468zM5.898 34.627H21.91v-.683H5.9v.683zm8.027-30.704c5.447.004 9.899 4.453 9.898 9.888a9.919 9.919 0 0 1-9.935 9.929c-5.46.005-9.9-4.45-9.895-9.925C4 8.353 8.451 3.92 13.926 3.923zm-2.598 8.301l-3.981-3.98c-2.999 3.367-2.558 8.473.016 11.162l3.964-3.958c-.604-1.062-.61-2.155 0-3.224zM19.519 7.3c-3.306-2.983-8.486-2.614-11.18-.01l3.952 3.972c1.08-.632 2.186-.613 3.26.01 1.336-1.338 2.644-2.645 3.968-3.972zm-3.049 8.186l3.928 4.017c2.834-2.98 2.826-8.413.081-11.249l-3.99 3.971c.613 1.07.604 2.164-.019 3.26zm-8.189 4.87c3.292 2.97 8.443 2.66 11.243-.01-1.242-1.242-2.487-2.484-3.725-3.732-.156-.157-.269-.218-.501-.098-.916.481-1.855.481-2.772.005-.227-.116-.342-.073-.503.088-1.237 1.249-2.482 2.488-3.742 3.746zm3.873-6.557a1.763 1.763 0 0 0 1.718 1.803c.96.027 1.775-.76 1.792-1.729a1.763 1.763 0 0 0-1.718-1.805 1.764 1.764 0 0 0-1.792 1.73z"/></g></g></svg>