<svg xmlns="http://www.w3.org/2000/svg" width="40" height="41" viewBox="0 0 40 41"><g><g><path fill="#f14b17" d="M39.748 8.821v22.823c-.023.072-.057.142-.068.216-.586 3.91-2.757 6.511-6.477 7.813-.615.212-1.277.29-1.917.433H8.462c-.085-.025-.169-.061-.255-.07-3.667-.425-6.8-3.07-7.82-6.62-.166-.58-.26-1.182-.387-1.772V8.821c.024-.086.057-.172.07-.26C.642 4.804 2.704 2.24 6.253.896 6.957.631 7.724.534 8.462.358h22.824c.085.023.169.06.256.07a9.287 9.287 0 0 1 7.828 6.659c.161.568.253 1.155.378 1.734zm-19.874 28.18c3.506 0 7.012.005 10.519-.003 3.489-.01 6.242-2.75 6.246-6.23.01-7.023.01-14.05 0-21.076-.005-3.482-2.759-6.223-6.247-6.226a9084.43 9084.43 0 0 0-21.038 0C5.85 3.469 3.11 6.218 3.107 9.733c-.006 7-.004 13.998.003 20.996 0 .414.032.832.113 1.234.604 2.99 3.108 5.03 6.17 5.035 3.494.007 6.988.003 10.48.003zm1.552-8.54c.758 0 1.467-.002 2.176 0 1.009.002 1.709.645 1.704 1.56-.004.902-.7 1.542-1.683 1.544-2.51.002-5.018.005-7.528-.002-1.17-.003-1.9-.951-1.576-2.027.195-.648.759-1.057 1.498-1.073.375-.008.75-.003 1.125-.003h1.18v-.426l-.001-8.15c0-1.132-.618-1.745-1.75-1.749-.272 0-.547.017-.813-.027-.795-.124-1.317-.748-1.313-1.534.005-.775.508-1.422 1.293-1.509 1.874-.205 3.783.209 5.05 2.288.447.732.64 1.544.64 2.405-.004 2.794-.002 5.588-.002 8.38v.322zm-1.552-15.682c-1.054 0-1.935-.869-1.94-1.912-.004-1.115.853-1.973 1.958-1.963 1.09.012 1.924.864 1.92 1.962-.003 1.045-.88 1.913-1.938 1.913z"/></g></g></svg>