<svg xmlns="http://www.w3.org/2000/svg" width="25" height="25" viewBox="0 0 25 25"><g><g><path fill="#fff" d="M6.77 8.317c-.528.008-.852-.133-1.12-.398-.64-.635-1.284-1.265-1.91-1.912-.54-.56-.526-1.387.005-1.914.53-.527 1.351-.534 1.913.008A84.701 84.701 0 0 1 7.57 6.012c.415.43.515.948.276 1.498-.227.527-.657.778-1.075.807zm14.686-3.21c-.158.3-.262.65-.483.892a44.673 44.673 0 0 1-1.904 1.917c-.562.544-1.385.537-1.914.011-.54-.534-.54-1.365.017-1.936a102.78 102.78 0 0 1 1.888-1.889c.428-.417.939-.517 1.495-.29.508.205.82.699.816 1.252l.085.043zM7.962 18.477c0 .38-.149.699-.414.964-.62.627-1.236 1.253-1.865 1.863-.575.562-1.402.566-1.939.031-.539-.534-.538-1.363.02-1.937.621-.636 1.25-1.268 1.889-1.888.428-.418.94-.514 1.495-.288.508.207.818.7.814 1.255zm13.422 1.75c-.034.707-.278 1.127-.782 1.367s-1.018.203-1.422-.172a37.069 37.069 0 0 1-2.125-2.126c-.473-.515-.389-1.32.111-1.806.489-.475 1.277-.541 1.783-.074.736.679 1.441 1.395 2.122 2.128.19.208.248.536.313.683zm-7.67-16.983c0 .44.006.878-.001 1.32-.013.79-.604 1.384-1.365 1.377-.746-.007-1.333-.596-1.34-1.368-.01-.89-.009-1.78 0-2.671.006-.792.602-1.383 1.363-1.377.748.005 1.328.59 1.341 1.368.008.45.002.9.002 1.351zm-2.708 18.968c0-.453-.006-.902 0-1.351.013-.776.592-1.366 1.339-1.374.762-.007 1.36.585 1.367 1.376.009.89.009 1.78 0 2.67-.008.79-.61 1.381-1.371 1.372-.745-.01-1.323-.601-1.334-1.375-.007-.438-.001-.88-.001-1.318zm-8.011-8.144c-.406 0-.812.008-1.217-.001A1.351 1.351 0 0 1 .44 12.695c.009-.732.59-1.32 1.34-1.331a83.315 83.315 0 0 1 2.468 0c.75.01 1.33.6 1.337 1.335.008.748-.577 1.348-1.34 1.368-.417.01-.834.001-1.251.001zm18.726-2.707c.405 0 .811-.008 1.216.003a1.347 1.347 0 0 1 1.342 1.366 1.345 1.345 0 0 1-1.337 1.336c-.822.012-1.645.012-2.468 0a1.346 1.346 0 0 1-1.34-1.366 1.348 1.348 0 0 1 1.336-1.336c.417-.011.834-.003 1.25-.003z"/></g></g></svg>