<svg xmlns="http://www.w3.org/2000/svg" width="20" height="16" viewBox="0 0 20 16"><g><g><path fill="#f14b17" d="M.039 12.512V4.078c.012-.038.029-.072.034-.11C.339 2.048 1.93.63 3.86.628c4.002-.006 8.003-.006 12.005 0a3.823 3.823 0 0 1 3.687 2.837c.055.201.09.407.133.613v8.434c-.011.037-.029.07-.033.109-.258 1.909-1.85 3.336-3.768 3.34-4.014.01-8.028.008-12.043 0C2.134 15.96.648 14.81.185 13.163c-.06-.212-.098-.433-.146-.65zm9.81 1.919h5.908c1.395 0 2.393-.997 2.393-2.39V4.548c0-1.393-.998-2.388-2.396-2.388H3.977c-1.41 0-2.403.99-2.403 2.4v7.473c0 1.405.996 2.398 2.406 2.398h5.87zm3.368-6.15c.574.6 1.135 1.184 1.697 1.769.492.513.99 1.017 1.474 1.535.428.462.219 1.16-.381 1.294-.312.068-.559-.054-.773-.279-.98-1.024-1.965-2.046-2.947-3.071-.044-.046-.08-.098-.104-.127-.21.196-.41.366-.592.552-1.005 1.03-2.452 1.03-3.454.002-.182-.185-.383-.355-.537-.499-.217.196-.467.398-.689.625-.816.838-1.623 1.685-2.432 2.53-.21.22-.455.333-.758.267a.73.73 0 0 1-.577-.53c-.09-.298-.008-.554.202-.774l1.62-1.688 1.542-1.603c-.055-.06-.103-.116-.154-.169-.993-1.023-1.985-2.046-2.98-3.067-.205-.211-.313-.454-.246-.746a.728.728 0 0 1 .534-.574c.298-.089.559-.01.772.207.56.573 1.114 1.148 1.67 1.72l3.14 3.234c.4.411.835.413 1.234.004a2481.14 2481.14 0 0 0 4.74-4.889c.218-.224.464-.36.784-.293.6.128.815.832.39 1.29-.384.41-.782.808-1.174 1.212l-1.884 1.94c-.035.036-.069.076-.117.128z"/></g></g></svg>