<svg xmlns="http://www.w3.org/2000/svg" width="30" height="30" viewBox="0 0 30 30"><g><g><path fill="#f14b17" d="M29.474 15.781c-.087.53-.139 1.066-.267 1.583-.94 3.813-3.318 6.395-6.946 7.764-3.43 1.296-6.74.917-9.83-1.108-.423-.277-.636-.67-.556-1.173.076-.476.363-.8.833-.932.375-.105.714-.009 1.034.21 1.024.688 2.143 1.145 3.368 1.32 2.605.373 4.949-.283 6.952-1.96 2.734-2.282 3.669-5.263 2.842-8.682-.824-3.41-3.148-5.48-6.515-6.268-3.273-.769-6.078.184-8.33 2.702-.414.462-.886.603-1.384.399-.45-.185-.768-.63-.701-1.111.037-.268.158-.566.335-.766 2.52-2.89 5.702-4.174 9.5-3.653 4.036.552 7.013 2.674 8.766 6.4.49 1.042.746 2.151.847 3.297.007.085.034.17.052.25v1.728zM0 14.688c.054-.24.102-.484.163-.722.567-2.217 2.533-3.76 4.815-3.839 1.022-.035 2.014.03 2.948.468 1.894.89 2.91 2.403 2.994 4.476.067 1.667.023 3.337.008 5.006-.002.217-.07.468-.193.644-.95 1.36-1.444 2.89-1.69 4.506-.106.7-.156 1.41-.173 2.117-.032 1.387-.853 2.368-2.233 2.609-.046.008-.09.031-.134.047H4.433c-.026-.012-.05-.03-.078-.035-1.555-.327-2.26-1.196-2.286-2.79-.03-1.679-.313-3.317-.998-4.86C.767 21.63.361 20.99 0 20.33v-5.64zm8.635 2.622h-.002c0-.71.01-1.42-.002-2.128-.021-1.256-.867-2.354-2.084-2.647-.422-.098-.874-.093-1.313-.094-1.736-.007-2.928 1.188-2.93 2.922-.003 1.361-.007 2.724.005 4.085.002.17.071.35.147.506.207.42.456.821.649 1.248.87 1.925 1.238 3.958 1.263 6.061.003.257.075.418.342.424.509.008 1.017.009 1.525-.002.203-.005.325-.104.333-.343.022-.604.045-1.209.111-1.807.22-2.005.779-3.903 1.837-5.638a.823.823 0 0 0 .114-.4c.01-.73.005-1.458.005-2.187zM5.757.527c.315.073.637.126.944.226C8.67 1.39 9.434 3.21 9.306 4.77 9.155 6.613 7.704 8.1 5.926 8.304c-2.397.277-4.474-1.555-4.428-3.907C1.538 2.371 2.895.849 4.903.576c.056-.008.109-.032.163-.049h.69zM5.41 2.822c-.878.001-1.605.714-1.61 1.579-.004.921.698 1.632 1.613 1.63.916-.002 1.615-.711 1.609-1.633-.007-.867-.734-1.576-1.612-1.576zm14.278 8.728c0 .624-.007 1.247.005 1.869a.57.57 0 0 0 .126.326c.26.313.402.664.448 1.069a.622.622 0 0 0 .155.34c.52.538 1.057 1.059 1.58 1.593.331.34.42.749.255 1.194-.16.43-.473.694-.932.753-.4.053-.73-.096-1.01-.378-.493-.498-.983-.998-1.489-1.48a.771.771 0 0 0-.413-.198c-.7-.087-1.204-.439-1.467-1.09-.267-.661-.153-1.273.318-1.82a.596.596 0 0 0 .116-.358c.008-1.178.004-2.358.005-3.535.001-.751.474-1.259 1.16-1.256.673.006 1.14.512 1.142 1.246.002.574 0 1.15 0 1.725z"/></g></g></svg>