<svg xmlns="http://www.w3.org/2000/svg" width="15" height="22" viewBox="0 0 15 22"><g><g><path fill="#f14b17" d="M4.726.254h5.94c.04.012.079.031.12.037 2.106.28 3.691 2.048 3.696 4.171.01 4.443.008 8.887 0 13.329a4.198 4.198 0 0 1-2.697 3.909c-.359.138-.745.203-1.118.3h-5.94c-.04-.013-.079-.032-.119-.036-2.095-.278-3.691-2.049-3.696-4.15C.9 13.357.902 8.899.912 4.44.913 2.67 2.072 1.074 3.745.502c.318-.108.653-.165.98-.248zm-2.121 10.87v6.538c0 1.53 1.106 2.639 2.634 2.639h4.9c1.544 0 2.649-1.104 2.649-2.644V4.6c0-1.544-1.103-2.645-2.645-2.646-1.626-.003-3.252 0-4.878 0-1.56 0-2.66 1.096-2.66 2.653v6.517zM7.698 5.35c-.282 0-.565.005-.847-.002A.845.845 0 0 1 6 4.503c0-.468.367-.843.848-.849.564-.008 1.13-.006 1.694 0a.84.84 0 0 1 .85.846c.002.47-.365.839-.847.848-.282.007-.565.002-.847.002zm.008 11.552c.275 0 .55-.002.826.001.495.008.866.382.86.86a.843.843 0 0 1-.858.837c-.558.007-1.116.007-1.673 0-.494-.004-.866-.379-.861-.858.005-.468.374-.83.859-.839.282-.003.565-.001.847-.001z"/></g></g></svg>