<svg xmlns="http://www.w3.org/2000/svg" width="20" height="20" viewBox="0 0 20 20"><g><g><path fill="#f14b17" d="M.208 9.514V4.332c.012-.042.029-.084.035-.126.285-1.874 1.311-3.15 3.079-3.817.35-.133.732-.181 1.1-.268h11.364c.042.011.084.027.127.034a4.638 4.638 0 0 1 3.972 3.595c.043.192.076.388.114.582v5.182c-.012.04-.03.082-.035.127-.266 2.288-2.223 4.07-4.53 4.08-3.547.013-7.094.012-10.641 0-2.04-.006-3.835-1.383-4.397-3.345-.081-.283-.126-.577-.188-.862zm9.885 2.664c1.753 0 3.505.005 5.257 0a3.088 3.088 0 0 0 3.101-3.092 534.66 534.66 0 0 0 0-4.328 3.083 3.083 0 0 0-3.1-3.09c-3.498-.006-6.996-.006-10.494 0a3.083 3.083 0 0 0-3.102 3.108c-.004 1.431-.003 2.861.002 4.291 0 .206.017.413.058.613.304 1.483 1.547 2.497 3.06 2.498 1.74.003 3.479 0 5.218 0zM.208 14.653c.073-.126.125-.274.221-.378.304-.334.796-.323 1.13.02.414.427.896.735 1.475.87.261.063.534.102.801.102 4.179.007 8.358.005 12.537.004.85 0 1.612-.27 2.183-.902.424-.469 1.2-.47 1.444.284v.31c-.104.16-.184.342-.315.476-.897.897-1.987 1.372-3.255 1.374-4.217.01-8.434.006-12.651.002-.87 0-1.682-.237-2.412-.704-.463-.299-.937-.6-1.158-1.148v-.31zm16.583 5.256H3.417c-.043-.01-.086-.027-.13-.032a4.363 4.363 0 0 1-1.908-.667c-.467-.302-.947-.601-1.17-1.154v-.31c.22-.721.996-.781 1.457-.274.571.63 1.338.893 2.188.893 4.166 0 8.332 0 12.498-.004.211 0 .426-.019.633-.056.654-.12 1.2-.44 1.662-.918.34-.348.844-.352 1.144-.008.09.104.14.244.208.367v.31c-.131.185-.238.397-.397.554a4.306 4.306 0 0 1-1.893 1.102c-.3.085-.612.132-.918.197zm-6.697-9.877c-1.764-.007-3.085-1.34-3.082-3.11.003-1.684 1.413-3.062 3.12-3.053 1.677.01 3.071 1.406 3.064 3.071-.009 1.769-1.343 3.098-3.102 3.092zm.003-1.526c.845.004 1.55-.689 1.552-1.524.002-.883-.673-1.562-1.549-1.56-.87.003-1.536.671-1.542 1.548-.005.834.696 1.535 1.54 1.536zm-3.86-4.38c-.022 1.116-.975 2.055-2.089 2.06-.452.002-.784-.3-.805-.737-.02-.433.286-.768.736-.805.39-.033.584-.224.614-.603.036-.464.374-.774.815-.746.443.025.738.362.728.831zm0 5.577c.004.483-.297.832-.735.851-.443.02-.777-.299-.81-.778-.024-.335-.243-.55-.585-.573-.445-.03-.773-.355-.767-.762.007-.447.33-.769.788-.786 1.06-.04 2.102.969 2.11 2.048zm9.864-1.968c.48-.003.828.304.843.744.015.44-.302.766-.785.802-.325.023-.543.245-.566.572-.033.462-.36.792-.77.778-.456-.013-.768-.338-.78-.815-.025-1.054.983-2.076 2.058-2.081zm-.018-1.625c-1.061-.01-2.064-1.033-2.04-2.079.012-.477.322-.803.778-.818.411-.012.74.316.771.776.024.343.239.548.604.577.543.043.868.518.704 1.027-.11.334-.404.522-.817.517z"/></g></g></svg>