<svg xmlns="http://www.w3.org/2000/svg" width="20" height="22" viewBox="0 0 20 22"><g><g><path fill="#f14b17" d="M12.295.01c.203.044.407.082.61.13 2.085.504 3.631 2.601 3.647 4.947.004.539-.319.931-.771.938-.453.005-.78-.376-.791-.917-.035-1.873-1.407-3.372-3.108-3.378-2.408-.005-4.816-.008-7.225 0-1.705.007-3.096 1.53-3.1 3.406-.006 3.914-.007 7.83 0 11.748.004 1.873 1.395 3.392 3.103 3.402 1.197.01 2.395 0 3.592.004.413 0 .733.302.795.73a.88.88 0 0 1-.53.944c-.03.012-.059.028-.088.043H4.25c-.043-.014-.085-.034-.128-.04-1.96-.25-3.594-1.875-4.014-3.992-.043-.218-.077-.435-.115-.651V4.694c.012-.048.03-.095.035-.145C.256 2.487 1.577.779 3.398.214c.279-.087.568-.137.852-.205h8.045zm-1.054 21.997c-.517-.246-.647-.48-.621-1.114.1-2.492 2.006-4.52 4.275-4.557.728-.01 1.46-.03 2.156.263 1.653.698 2.622 2.009 2.9 3.937.01.06.026.12.038.181v1.29h-.937c-.447-.167-.622-.51-.635-1.027-.03-1.284-.867-2.429-1.995-2.8-.497-.165-1.004-.13-1.51-.123-1.446.018-2.681 1.333-2.725 2.923-.014.515-.187.86-.634 1.027h-.312zm4.02-6.96c-1.826 0-3.316-1.641-3.317-3.65 0-2.02 1.495-3.66 3.332-3.654 1.825.006 3.31 1.65 3.307 3.66-.003 2.01-1.495 3.645-3.322 3.644zm-1.754-3.664c-.005 1.06.776 1.935 1.736 1.944.972.011 1.772-.854 1.777-1.92.005-1.06-.775-1.935-1.736-1.944-.972-.01-1.773.855-1.777 1.92zM8.234 5.595c.962 0 1.925-.003 2.887.002.379.002.674.268.762.667.082.367-.075.77-.39.94a.873.873 0 0 1-.392.106c-1.912.007-3.824.007-5.736.003-.459 0-.802-.376-.802-.858 0-.484.343-.856.802-.858.957-.004 1.913-.002 2.869-.002zm-.802 5.026c-.677 0-1.353.004-2.029 0-.49 0-.84-.361-.84-.86 0-.5.35-.856.842-.857h4.097c.49.001.84.361.84.86s-.35.857-.843.857c-.689.004-1.378 0-2.067 0zm.014 1.548h2.049c.494.003.844.353.847.851.003.507-.35.866-.855.866H5.41c-.494 0-.844-.353-.847-.854-.003-.506.35-.86.855-.863h2.028zm.005 3.305c.683 0 1.366 0 2.048.003.493.001.842.357.843.858 0 .496-.35.86-.84.86H5.406c-.493 0-.842-.36-.843-.859 0-.496.35-.858.84-.859.683-.003 1.365-.003 2.048-.003z"/></g></g></svg>