<svg xmlns="http://www.w3.org/2000/svg" width="21" height="23" viewBox="0 0 21 23"><g><g><path fill="#f14b17" d="M14.627 22.323c-.37-.151-.775-.249-1.102-.464-.74-.49-1.106-1.217-1.108-2.105-.006-2.373-.012-4.746.006-7.118.004-.513-.179-.84-.612-1.114-1.513-.952-2.432-2.32-2.723-4.091-.435-2.65 1.04-5.304 3.53-6.36.2-.083.413-.17.625-.19.476-.042.87.362.872.868.004 1.014-.002 2.026.003 3.04.002.607.56 1.017 1.12.827.35-.117.577-.433.578-.828.003-.986 0-1.97.002-2.953 0-.754.552-1.13 1.262-.862 2.415.913 3.993 3.3 3.829 5.866-.129 2.015-1.07 3.585-2.769 4.672-.446.286-.634.616-.63 1.146.02 2.315-.014 4.632.017 6.947.02 1.479-1.019 2.529-2.167 2.687-.019.004-.035.022-.053.032h-.68zM12.415 3.12c-1.317 1.11-1.9 2.45-1.635 4.105.209 1.311.947 2.272 2.075 2.96.84.51 1.259 1.275 1.26 2.263.003.964.001 1.926.001 2.89 0 1.473-.002 2.945.002 4.42a.85.85 0 0 0 .772.863.855.855 0 0 0 .912-.691c.018-.098.015-.198.015-.296l.001-7.14c0-.141 0-.284.02-.422.122-.885.607-1.508 1.36-1.968a4.185 4.185 0 0 0 1.218-6.055 4.02 4.02 0 0 0-.897-.907v.244c0 .505.008 1.007-.003 1.51-.028 1.324-1.15 2.44-2.472 2.466a2.557 2.557 0 0 1-2.629-2.566c-.002-.537 0-1.074 0-1.676zM4.418 22.323c-.37-.151-.774-.249-1.1-.464-.735-.483-1.104-1.203-1.109-2.085-.009-1.776-.003-3.554-.003-5.332v-.279c-.266 0-.518.003-.77 0-.551-.001-.935-.357-.93-.858.004-.493.385-.841.925-.841h6.655c.54 0 .92.348.925.84.005.502-.38.858-.93.86-.247.002-.494 0-.77 0v.255c0 1.73-.025 3.457.007 5.186.028 1.478-1.018 2.528-2.167 2.686-.018.004-.035.022-.052.032h-.68zm-.51-8.149v5.55c0 .413.22.73.576.853.566.193 1.123-.22 1.124-.846.003-1.8.001-3.599 0-5.396 0-.055-.009-.107-.014-.16H3.908zM5.779.563c.412.132.613.426.71.84.245 1.04.517 2.07.773 3.106.166.674-.21 1.152-.901 1.153-.24.002-.48 0-.752 0v.236c0 1.33.003 2.661-.001 3.99-.003.618-.578 1.028-1.141.824-.346-.126-.558-.441-.559-.846V5.92v-.257c-.268 0-.52.002-.773 0-.656-.002-1.041-.477-.887-1.11.268-1.098.547-2.195.818-3.291.09-.365.328-.582.672-.698h2.041zM4.153 3.94h1.212c-.134-.536-.259-1.05-.398-1.561-.014-.052-.116-.11-.176-.11-.081 0-.22.04-.234.09-.146.523-.271 1.05-.404 1.581z"/></g></g></svg>