<svg xmlns="http://www.w3.org/2000/svg" width="41" height="41" viewBox="0 0 41 41"><g><g><path d="M11.003.761c.279.187.481.417.355.782-.128.365-.436.4-.77.398a903.277 903.277 0 0 0-4.283-.001c-2.897.008-5.124 2.235-5.125 5.133-.003 9.207-.003 18.417 0 27.625.001 2.883 2.223 5.12 5.097 5.12 9.235.008 18.47.008 27.704 0 2.83 0 5.074-2.234 5.076-5.06.008-9.249.008-18.495 0-27.743-.002-2.848-2.242-5.071-5.102-5.074-6.589-.005-13.177-.001-19.766-.001-.091 0-.183-.003-.275 0-.327.012-.647-.009-.784-.372-.13-.35.049-.599.31-.807h21.298c.071.024.14.06.214.073 2.626.502 4.32 2.038 5.082 4.598.089.295.138.606.205.909v29.08c-.025.098-.056.195-.075.297-.5 2.603-2.016 4.297-4.555 5.066-.31.092-.633.143-.95.215H5.58c-.073-.023-.146-.054-.222-.067C2.691 40.456.98 38.914.201 36.325c-.082-.27-.135-.55-.201-.826V6.264c.025-.073.06-.142.073-.217C.5 3.694 1.826 2.063 4.04 1.168 4.506.98 5.013.895 5.5.761h5.502zm12.565 11.16c.158-.198.255-.313.345-.433.633-.834 1.26-1.674 1.899-2.505.578-.75 1.51-.825 2.192-.173.501.48.995.969 1.471 1.474 1.594 1.687 1.578 4.457-.031 6.132-.152.16-.34.285-.51.423.022.037.044.07.066.104.107 0 .215.014.32-.001 1.025-.14 2.05-.277 3.071-.433 1.116-.17 1.849.43 1.843 1.56-.004.863.046 1.743-.099 2.586-.37 2.15-2.228 3.65-4.418 3.673l-.629.001c.166.14.253.217.346.287.835.634 1.672 1.263 2.505 1.897.867.66.927 1.574.154 2.352-.433.437-.86.882-1.31 1.3-1.822 1.697-4.42 1.69-6.245-.005-.15-.137-.296-.28-.531-.504.115.849.213 1.583.313 2.315.061.44.134.88.188 1.32.101.824-.344 1.572-1.095 1.648-1.157.115-2.332.19-3.473-.13-1.887-.53-3.164-2.177-3.26-4.158-.012-.234-.002-.471-.002-.792-.127.142-.204.218-.27.303-.649.854-1.292 1.715-1.945 2.567-.633.828-1.552.888-2.3.154-.429-.423-.854-.85-1.277-1.28a4.501 4.501 0 0 1 .003-6.356c.126-.129.27-.238.406-.355a7.607 7.607 0 0 0-.067-.108c-.731.097-1.463.196-2.194.295-.453.062-.905.142-1.36.194-.856.094-1.588-.398-1.63-1.21-.051-.988-.093-2.004.068-2.974.348-2.1 2.132-3.561 4.27-3.652.222-.008.444 0 .76 0-.14-.123-.213-.199-.296-.262-.866-.657-1.735-1.309-2.598-1.966-.787-.602-.856-1.541-.167-2.246a79.88 79.88 0 0 1 1.333-1.334 4.507 4.507 0 0 1 6.332.012c.128.127.243.266.364.4a3.49 3.49 0 0 1 .101-.05c-.063-.495-.122-.99-.19-1.484-.09-.647-.181-1.296-.279-1.942-.157-1.05.44-1.795 1.493-1.798.889-.001 1.795-.049 2.663.099 2.136.364 3.635 2.214 3.67 4.381.002.192 0 .383 0 .674zM20.125 25.71c2.643-.006 4.834-2.179 4.823-4.787-.011-2.78-2.085-4.848-4.854-4.839-2.74.008-4.8 2.088-4.803 4.85-.003 2.61 2.192 4.778 4.834 4.776zm2.258-10.417c0-1.43.04-2.805-.01-4.176-.063-1.695-1.346-3.005-3.032-3.146-.637-.054-1.28-.028-1.921-.032-.514-.001-.566.07-.493.576.152 1.06.296 2.123.444 3.183l.502 3.593c1.508-.557 2.992-.55 4.51.002zm-7.85 3.317h-.43c-1.268.003-2.54-.043-3.805.023-1.68.084-2.952 1.365-3.09 3.043-.05.625-.025 1.256-.028 1.884-.002.544.06.584.592.51 1.45-.203 2.9-.4 4.349-.602.795-.111 1.589-.228 2.409-.344-.56-1.524-.543-3.01.003-4.514zm3.326 7.96c0 1.331-.051 2.732.014 4.128.078 1.68 1.363 2.955 3.04 3.092.623.053 1.254.028 1.881.03.547.005.591-.059.516-.589-.204-1.437-.4-2.874-.6-4.308l-.33-2.345c-.793.107-1.54.287-2.285.283-.744-.001-1.488-.185-2.236-.29zm7.881-3.446c1.45 0 2.904.09 4.342-.023 1.694-.131 2.84-1.418 2.958-3.122.042-.612.02-1.228.018-1.844 0-.458-.08-.518-.54-.452-1.255.175-2.51.35-3.765.527l-3.016.42c.492 2.137.492 2.137.003 4.494zm-2.172-8.352c0 1.098 0 1.098.707 1.77.048.045.109.083.138.139.445.847 1.145.885 1.97.682.351-.087.658-.164.914-.448.383-.429.811-.816 1.213-1.227 1.3-1.337 1.306-3.357.012-4.694-.4-.411-.81-.817-1.22-1.22-.31-.309-.377-.306-.64.042-.83 1.091-1.638 2.204-2.495 3.275-.435.544-.765 1.084-.599 1.68zm-6.932 12.07c.195-.702-.034-1.238-.654-1.609a.38.38 0 0 1-.14-.138c-.45-.812-1.116-.932-1.963-.7-.362.1-.683.171-.947.462-.385.429-.813.815-1.213 1.23-1.297 1.34-1.292 3.35.009 4.691.382.392.775.778 1.164 1.164.366.366.414.364.72-.04.814-1.071 1.604-2.162 2.446-3.213.445-.555.778-1.106.578-1.847zm9.584-2.513c-.402 0-.678-.017-.95.009a.63.63 0 0 0-.355.171c-.427.4-.843.814-1.255 1.232-.073.074-.164.192-.153.278.112.878.064 1.812.943 2.406.32.217.56.548.84.823 1.346 1.324 3.366 1.34 4.72.03.413-.4.817-.81 1.221-1.22.303-.304.299-.374-.051-.64-1.093-.832-2.206-1.635-3.276-2.496-.546-.437-1.09-.75-1.684-.593zm-12.088-6.934c.708.2 1.265-.013 1.64-.659a.214.214 0 0 1 .08-.082c1.117-.552.873-1.489.675-2.406a.703.703 0 0 0-.178-.329c-.502-.515-1.004-1.03-1.527-1.525-1.254-1.186-3.267-1.174-4.519.02-.435.415-.854.846-1.279 1.273-.32.322-.316.39.048.667 1.094.829 2.205 1.637 3.277 2.493.535.43 1.066.746 1.783.548zm5.349-14.24c9.725-.009 16.215 6.4 17.898 13.484 1.763 7.413-1.41 15.347-7.787 19.268-.067.04-.131.088-.2.126-.345.185-.68.114-.856-.183-.17-.286-.089-.594.227-.813.452-.314.925-.596 1.36-.93 4.696-3.602 6.914-8.392 6.459-14.264-.446-5.761-3.125-10.31-8.13-13.333-2.944-1.776-6.198-2.47-9.61-2.138C12.27 5.014 7.55 8.39 4.882 14.405c-3.331 7.515-.482 16.234 6.538 20.527 3.036 1.856 6.319 2.738 9.879 2.523a15.166 15.166 0 0 0 4.689-1.058c.11-.043.218-.09.33-.128.388-.136.713-.006.832.338.112.32-.042.637-.43.76-.97.307-1.937.651-2.93.866-10.507 2.279-19.458-5.006-21.166-14.312-1.053-5.734.597-10.75 4.445-15.06 3.47-3.887 7.914-5.604 12.411-5.706zM7.426 3.119h1.415c.41 0 .71.184.862.56.15.373.079.718-.213 1.01-1.852 1.85-3.703 3.703-5.556 5.553-.3.301-.655.381-1.043.212-.376-.165-.54-.479-.533-.882.021-1.085-.046-2.182.088-3.254.222-1.771 1.82-3.126 3.606-3.192.457-.016.916-.001 1.374-.001v-.006zm-3.83 5.622L8.047 4.3c-.58 0-1.219-.01-1.857.002-1.275.023-2.39.902-2.571 2.16-.114.79-.021 1.608-.021 2.28zM32.84 3.088c.613.034 1.234.015 1.838.107 1.77.27 3.136 1.824 3.194 3.613.03.93.01 1.859.01 2.788 0 .408-.18.716-.556.87-.373.15-.721.075-1.01-.213-1.862-1.86-3.723-3.723-5.583-5.584-.292-.294-.346-.642-.186-1.012.155-.36.445-.535.838-.538h1.453l.002-.03zM36.7 8.983c0-.763.026-1.413-.005-2.063-.055-1.135-.613-1.96-1.66-2.407-.946-.404-1.943-.147-3.006-.229.14.15.2.22.264.283L36.7 8.983zM7.402 38.704c-.727-.069-1.473-.055-2.176-.22-1.66-.394-2.826-1.904-2.862-3.605-.02-.904-.005-1.806-.006-2.71 0-.407.173-.715.55-.871.373-.156.721-.084 1.01.205 1.862 1.86 3.723 3.722 5.584 5.583.292.292.35.64.193 1.012-.152.36-.441.541-.834.542-.485.003-.97 0-1.454 0l-.005.064zm-3.865-5.791c0 .608-.007 1.234.002 1.86.018 1.317.902 2.433 2.203 2.619.776.11 1.58.018 2.302.018l-4.507-4.497zm34.375.68c-.033.615-.016 1.236-.107 1.84-.267 1.756-1.798 3.124-3.57 3.194-.954.04-1.911.016-2.867.012-.39-.001-.684-.188-.832-.55-.147-.355-.097-.699.182-.979 1.877-1.88 3.757-3.763 5.64-5.638.279-.279.626-.322.98-.172.36.154.537.45.541.84.006.484.002.97.002 1.452.01.002.02.002.031.002zm-1.215-.601l-4.466 4.466c.588 0 1.27.027 1.948-.004 1.335-.064 2.45-1.177 2.512-2.513.032-.678.006-1.358.006-1.95zM20.12 22.706c-1.058 0-1.833-.773-1.84-1.835a1.827 1.827 0 0 1 1.858-1.83 1.825 1.825 0 0 1 1.821 1.827c-.006 1.064-.783 1.838-1.84 1.838zm.656-1.843a.636.636 0 0 0-.693-.636.633.633 0 0 0-.62.668.648.648 0 0 0 .693.642.643.643 0 0 0 .62-.674z"/></g></g></svg>