<svg xmlns="http://www.w3.org/2000/svg" width="41" height="28" viewBox="0 0 41 28"><g><g><path d="M.688 2.048c.217-.383.38-.81.66-1.139C1.818.368 2.48.257 3.177.257c7.543.007 15.086.004 22.629.004.354 0 .708-.004 1.062.001.468.009.735.224.743.584.008.373-.27.598-.759.598H3.2c-.991 0-1.33.336-1.33 1.317v20.101c0 .966.331 1.296 1.303 1.299H14.31c.687 0 .957.17.952.6-.005.427-.263.582-.968.582h-.973c0 .4.002.774 0 1.148-.006.997-.477 1.47-1.474 1.472-1.587.003-3.174.003-4.762 0-.997-.004-1.455-.474-1.458-1.482-.002-.354 0-.707 0-1.11-.145-.011-.27-.026-.394-.026-.603-.003-1.209-.034-1.81.005-1.362.085-2.307-.434-2.734-1.776V2.048zm11.409 23.318h-5.29c0 .347.018.674-.006.996-.024.32.074.432.41.426 1.243-.018 2.487-.008 3.73-.008 1.263 0 1.263 0 1.191-1.28-.001-.024-.013-.05-.035-.134zM41 23.574c-.105.238-.186.488-.32.707-.432.708-1.078 1.054-1.902 1.061-.748.005-1.496.001-2.244.001h-.471c0 .452.004.854-.001 1.257-.011.854-.49 1.352-1.342 1.359a341.96 341.96 0 0 1-4.999 0c-.852-.004-1.336-.502-1.351-1.352-.007-.404-.001-.808-.001-1.264h-10.62c-.606 0-.894-.188-.903-.58-.008-.405.291-.602.92-.602 6.875 0 13.75 0 20.625-.003.184 0 .369.004.55-.019a.974.974 0 0 0 .868-.878c.015-.13.01-.261.01-.394V2.763c0-.983-.338-1.318-1.328-1.318l-8.345-.001c-.144 0-.29.005-.432-.011-.319-.038-.5-.234-.517-.548-.017-.313.15-.527.462-.591.152-.033.312-.032.469-.032l8.148-.001c1.608 0 2.12.336 2.724 1.787v21.526zm-6.138 1.792H29.55c0 .345.019.673-.005.995-.023.32.076.432.412.427 1.518-.017 3.037-.006 4.556-.009.112 0 .225-.016.35-.028v-1.385zm-13.36-12.552c-.01-4.645 3.78-8.465 8.419-8.482a8.462 8.462 0 0 1 8.505 8.465c.008 4.675-3.782 8.482-8.448 8.487-4.658.006-8.466-3.798-8.476-8.47zm14.013-4.723c-1.134 1.135-2.22 2.238-3.327 3.318-.266.257-.377.476-.11.791h5.149a7.316 7.316 0 0 0-1.712-4.109zm-4.96.108c0 .75.006 1.498-.004 2.246-.003.202.047.35.256.363.132.005.312-.008.394-.088 1.077-1.058 2.137-2.132 3.208-3.195.192-.192.21-.338-.019-.512a7.394 7.394 0 0 0-3.366-1.424c-.384-.058-.485.084-.475.445.02.72.006 1.443.006 2.165zm4.119 10.166c-1.163-1.17-2.291-2.3-3.417-3.433-.133-.134-.236-.24-.467-.14-.226.095-.237.236-.237.428.003 1.507.001 3.015.002 4.522 0 .1.009.199.015.326 1.56-.135 2.903-.706 4.104-1.703zm-5.3-.94c0-.761.01-1.523-.011-2.283-.003-.115-.124-.272-.233-.328-.092-.047-.291-.024-.364.048-1.103 1.085-2.192 2.183-3.287 3.277-.159.16-.139.295.03.424a7.212 7.212 0 0 0 3.509 1.468c.295.04.36-.105.358-.362-.007-.747-.003-1.497-.003-2.243zm-1.496-5.207c.086-.247.268-.422.002-.678-1.072-1.042-2.122-2.108-3.172-3.17-.205-.207-.35-.222-.534.023a7.417 7.417 0 0 0-1.426 3.447c-.034.241.033.38.304.38 1.598-.004 3.196-.002 4.826-.002zm-5.163 1.194c.15 1.569.706 2.92 1.71 4.104 1.135-1.136 2.227-2.246 3.346-3.332.264-.257.336-.464.094-.772h-5.15zm11.842-.012c-.733 0-1.467.004-2.2-.004-.201-.003-.385.015-.396.253-.006.14.028.326.119.42 1.036 1.058 2.092 2.096 3.129 3.154.24.247.387.226.583-.042a7.422 7.422 0 0 0 1.39-3.379c.044-.296-.045-.41-.346-.406-.76.01-1.519.004-2.279.004zm-5.184-7.865c-1.58.158-2.93.715-4.105 1.72 1.165 1.169 2.3 2.314 3.45 3.447.086.086.276.14.385.106.111-.035.258-.199.259-.306.016-1.64.011-3.281.011-4.967zm1.563 7.255a.97.97 0 1 0-1.939.033c.01.535.46.975.989.964a.977.977 0 0 0 .95-.997zM6.99 7.248c1.185 1.19 2.339 2.353 3.506 3.503.073.07.262.09.364.049.102-.04.23-.187.231-.288.015-1.64.01-3.28.01-4.977-.337.052-.643.09-.946.142-.5.09-.8-.044-.878-.407-.082-.376.15-.644.657-.756 3.79-.834 7.741 1.123 9.413 4.665 2.727 5.777-1.693 12.402-8.071 12.097-4.756-.228-8.41-4.407-8-9.167.226-2.628 1.447-4.701 3.574-6.246.392-.285.754-.259.966.052.21.303.117.61-.266.9-.185.14-.367.283-.56.433zm10.254.84c-1.133 1.135-2.218 2.237-3.324 3.318-.264.256-.39.475-.108.794h5.145a7.334 7.334 0 0 0-1.713-4.112zM12.499 5.56c-.053.082-.204.203-.206.328a216.422 216.422 0 0 0 0 4.61c.002.108.145.258.257.307.095.043.279.008.36-.064.321-.29.618-.606.924-.91.76-.762 1.52-1.525 2.282-2.286.154-.151.285-.307.055-.487-1.048-.814-2.228-1.31-3.672-1.498zm3.887 12.788c-1.142-1.147-2.27-2.276-3.397-3.41-.13-.13-.23-.243-.465-.15-.254.102-.243.265-.243.464.002 1.207 0 2.413 0 3.618v1.17c1.278.014 3.125-.748 4.105-1.692zm-9.298-6.13c.733 0 1.467 0 2.2.002.187 0 .332.004.428-.23.094-.229 0-.331-.135-.465-1.039-1.037-2.081-2.072-3.108-3.12-.25-.256-.403-.247-.614.041a7.511 7.511 0 0 0-1.376 3.345c-.047.3.037.439.365.433.746-.015 1.493-.005 2.24-.005zm2.506 1.202H4.446c.14 1.563.712 2.908 1.705 4.103 1.122-1.125 2.217-2.236 3.335-3.326.255-.25.365-.457.108-.777zm1.507 4.038c0-.762.01-1.524-.011-2.284-.004-.127-.126-.302-.24-.359-.096-.05-.306-.004-.39.08-1.075 1.057-2.134 2.13-3.205 3.192-.195.195-.206.338.02.507a7.363 7.363 0 0 0 3.4 1.433c.341.053.439-.078.431-.405-.017-.72-.005-1.443-.005-2.164zm2.678-4.057c-.072.247-.261.413-.006.66 1.08 1.05 2.14 2.123 3.2 3.196.19.193.33.213.504-.02a7.312 7.312 0 0 0 1.44-3.48c.03-.224-.028-.358-.281-.356-1.61.002-3.22 0-4.857 0zm-1.113-.584a.971.971 0 0 0-.96-.987.983.983 0 0 0-.984.968.993.993 0 0 0 .966.99.98.98 0 0 0 .978-.971zm8.18 7.286c.603 0 1.205-.006 1.808.001.421.006.684.246.676.602-.009.337-.266.575-.664.577-1.218.006-2.437.006-3.655 0-.416-.002-.685-.255-.677-.604.008-.338.267-.57.665-.575.615-.007 1.231-.001 1.847-.001z"/></g></g></svg>