<svg xmlns="http://www.w3.org/2000/svg" width="99" height="36" viewBox="0 0 99 36"><g><g><path fill="#f14b17" d="M68.298.207c.377 0 .33.14-.094.327-.424.188-.942.467-1.13.608-.189.14-.566.468-.849.75-.282.279-.66.983-.895 1.59-.235.608-.377 2.057-.424 3.227-.047 1.17-.047 2.199-.047 2.293 0 .026-.051.038-.143.038-.237 0-.74-.077-1.318-.178-.4-.095-1.225-.14-2.226-.14s-2.179.045-3.286.14l-.047-.047a56.555 56.555 0 0 1-4.378.187c-.607 0-1.104-.016-1.417-.047-.943-.093-2.12-.188-2.545-.188h-.895c-.047 0-.094.329-.094.704 0 .373.141 1.683.282 2.853.189 1.17.801 2.947 1.367 3.835.565.89 2.073 1.92 3.298 2.246 1.225.281 2.638.562 3.157.562h1.79c.518 0 .895.048.895.14v2.387c0 1.262-.047 2.667-.141 3.18-.094.516-.565 1.03-1.037 1.217-.47.14-2.732.28-4.947.28h-4.193c-.047 0-.141 1.31-.189 2.9 0 1.592.236 3.79.566 4.914.33 1.123.565 2.011.518 2.011H40.217c-.753 0-1.319-.7-1.319-1.497V30.24v-6.688-10.34-7.25V1.47c0-.701.848-1.263 1.932-1.263h27.468zm9.416 22.788c.612 0 1.975 0 3.01-.093h2.82c.517 0 .752-.56.564-1.213a237.33 237.33 0 0 0-1.504-5.031 374.998 374.998 0 0 1-1.599-5.268c-.12-.407-.279-.618-.436-.616-.149 0-.296.185-.41.57-.235.793-.94 3.169-1.598 5.267l-.047.093c-.659 2.142-1.364 4.426-1.552 5.078-.188.653.141 1.213.752 1.213 0 0-.611 0 0 0zM83.732.207c1.457 0 3.244 1.725 3.95 3.821l8.838 26.004c.705 2.097 1.457 4.287 1.645 4.893.188.605-.235 1.071-.893 1.071h-7.946c-.564 0-1.128-.418-1.268-.886-.142-.464-.33-1.024-.377-1.257a16.987 16.987 0 0 0-.423-1.445c-.14-.605-.752-1.071-1.316-1.071h-10.72c-.658 0-1.269.372-1.41.837-.141.467-.329 1.12-.423 1.445-.094.28-.282.98-.423 1.445-.188.514-.705.885-1.175.885H62.67c-.094 0-.047-.324.141-.791.188-.466.376-.84.376-.84.047-.046.235-.884.423-1.91.188-1.024.423-2.656.47-3.635.047-.978.847-2.238 1.787-2.89.94-.653 2.586-2.144 3.62-3.401 1.034-1.258 2.398-3.821 3.009-5.778.61-1.911 1.034-5.033.987-6.945-.047-1.91 0-4.286.094-5.405.094-1.117.235-2.236.235-2.47 0-.233.141-.652.282-.885.141-.231.517-.512.753-.606.235-.093.517-.186.564-.186h8.321zm-51.06 0h-30.9C.915.207.344.767.344 1.464v6.478c0 .7.57 1.259 1.284 1.259h8.842c.713 0 1.284.558 1.284 1.259v24.279c0 .698.57 1.257 1.283 1.257h8.224c.713 0 1.284-.559 1.284-1.257V10.412c0-.698.57-1.258 1.284-1.258h8.842c.713 0 1.283-.56 1.283-1.258V1.464c0-.696-.57-1.257-1.283-1.257m36.87 1.988a.992.992 0 0 0-.988.994c0 .55.443.996.989.996a.992.992 0 0 0 .988-.996.992.992 0 0 0-.988-.994"/></g></g></svg>