<svg xmlns="http://www.w3.org/2000/svg" width="41" height="41" viewBox="0 0 41 41"><g><g><path fill="#fff" d="M40.458 32.702c-.273.597-.735.808-1.389.802-2.777-.023-5.555-.009-8.333-.009-.13 0-.267.014-.393-.016-.285-.068-.463-.25-.473-.552-.01-.325.165-.521.467-.597.124-.031.261-.019.393-.019h8.666c-.163-.262-.268-.433-.374-.6-.006-.011-.02-.017-.03-.028-.566-.606-1.248-.766-2.08-.753-3.04.051-6.082.027-9.123.013-.35-.001-.636.064-.889.315-.175.178-.405.3-.577.478-.128.133-.203.315-.36.575.61 0 1.081-.003 1.552 0 .487.003.77.227.765.6-.006.362-.28.581-.743.584-.5.003-1 .007-1.5-.001-.678-.014-1.085-.437-1.142-1.107-.06-.71.145-1.288.772-1.648.682-.391.883-.931.849-1.716-.07-1.59-.02-3.185-.02-4.779v-.454H6.14v2.246c0 .757-.15.908-.894.909-1.475 0-2.95-.01-4.423.005-.364.004-.644-.082-.823-.412V13.422c.199-.262.418-.489.79-.35.363.137.413.44.396.778-.005.091 0 .184 0 .276V25.73h3.737V9.423H1.185c0 .424-.008.819.003 1.214.01.34-.042.644-.403.774-.367.133-.593-.087-.785-.36v-2.45c.211-.13.42-.372.633-.376 1.618-.032 3.236-.022 4.854-.015.395.001.61.208.646.594.016.17.007.343.007.515v2.042h3.52c0-.244-.008-.453.002-.662.036-.709.341-1.274.974-1.606.26-.136.31-.295.309-.552-.007-2.369 0-4.735-.01-7.105 0-.36.061-.67.365-.895h.474c.298.231.36.54.358.9-.01 2.371-.006 4.742-.005 7.111 0 .19-.037.367.213.487.736.357 1.065.982 1.07 1.79.002.179.001.355.001.564h.607c.487.002.975-.013 1.461.01.376.019.593.273.578.615-.014.328-.225.53-.596.555-.158.012-.316.007-.474.007h-1.543v9.977h6.172c.007-.16.019-.3.02-.442v-2.131c0-2.332-.006-4.663.007-6.994.002-.33-.095-.44-.423-.417-.34.025-.685.014-1.026-.008-.343-.022-.528-.243-.533-.574-.006-.31.174-.518.488-.576.128-.024.262-.02.393-.02 1.646-.002 3.292-.002 4.938-.002h.465c0-.249-.004-.454.001-.661.018-.73.337-1.297.979-1.643.236-.128.3-.265.298-.517-.008-2.396 0-4.792-.01-7.188-.002-.359.087-.642.39-.843h.395c.33.178.413.461.411.822-.011 2.409-.003 4.816-.01 7.226 0 .234.054.368.284.485.635.325.965.869.993 1.587.01.232.002.464.002.732.32 0 .585-.024.843.006.912.099 1.847.119 2.73.343 4.51 1.15 7.592 5.178 7.615 9.894.013 2.698.006 5.394-.004 8.09 0 .251.077.408.271.562.487.387 1.043.712 1.325 1.309v1.105zM12.193 22.564v-9.96h-6.02v9.96h6.02zm15.512 7.166h9.95v-5.946h-9.95v5.946zm-1.241-7.173V12.58h-.42c-1.591 0-3.183.01-4.774-.01-.374-.005-.456.115-.455.467.013 3.024.007 6.051.007 9.076v.444h5.642zm5.993-9.146c-.22-.092-.374-.161-.532-.224-1.23-.49-2.516-.625-3.83-.615-.324.001-.423.085-.421.417.013 2.553.007 5.104.008 7.658 0 .096.019.19.039.387l4.736-7.623zm5.2 9.149c.128-1.637-.185-3.656-.855-4.728-2.5 1.555-5 3.11-7.5 4.663l.03.065h8.324zm-4.16-8.576l-4.469 7.194.057.053 7.191-4.469a9.07 9.07 0 0 0-2.779-2.778zm-21.285-2.607c0-.492.144-.984-.376-1.27-.29-.157-.565-.087-.793.14-.238.237-.278.772-.098 1.13h1.267zm14.283-.003c-.032-.477.159-.994-.36-1.238-.194-.093-.54-.063-.72.056-.437.29-.263.762-.27 1.182h1.35zM32.24 41c-.585-.434-.554-.885.049-1.499-.16-.38-.413-.726-.42-1.074-.005-.337.246-.675.384-1.014.055-.008.11-.017.164-.028-.095-.064-.207-.112-.282-.196-.314-.34-.42-.758-.201-1.163.2-.37.468-.72.774-1.009.126-.119.49-.14.634-.043.166.112.318.429.28.617-.064.312-.282.595-.448.913.67.732.669 1.133-.02 1.889.16.265.38.5.445.775.058.244.015.573-.113.784-.232.378-.562.7-.85 1.048h-.396zm-4.978 0c-.524-.506-.485-.893.102-1.5-.16-.376-.417-.723-.424-1.073-.006-.336.248-.675.388-1.014l.11.02c-.088-.093-.18-.182-.262-.278-.284-.329-.375-.73-.18-1.099.202-.384.484-.74.793-1.046.117-.115.448-.134.605-.052.158.082.334.368.303.526-.065.338-.258.655-.392.962.125.299.38.645.385.993.005.336-.25.674-.391 1.01a1.575 1.575 0 0 1-.108-.028c.118.137.25.261.35.408.246.353.25.838-.005 1.184-.253.338-.532.658-.8.987h-.474zm9.878 0c-.56-.465-.527-.836.071-1.5-.164-.391-.422-.74-.424-1.088-.001-.336.263-.673.41-1.007.048-.01.095-.02.143-.028-.114-.087-.251-.153-.338-.261-.28-.35-.351-.754-.121-1.14.204-.345.453-.672.737-.95.119-.116.419-.163.57-.094.167.076.33.306.366.494.083.434-.206.734-.435.936.162.386.415.73.42 1.076.005.337-.246.675-.38 1.005.119.28.292.616.399.974.042.14-.015.36-.107.485-.285.38-.608.734-.916 1.098h-.395z"/></g></g></svg>