<svg xmlns="http://www.w3.org/2000/svg" width="25" height="41" viewBox="0 0 25 41"><g><g><path d="M5.116 20.297c.17-.282.051-.456-.134-.655-3.86-4.153-3.73-10.393.306-14.32.445-.436.953-.805 1.458-1.17.466-.339.987-.366 1.498-.09.509.275.755.722.766 1.297.003.151-.014.303.004.45.107.913-.197 1.598-.945 2.184-.856.672-1.39 1.615-1.736 2.656-.02.063-.04.127-.064.19-.157.424-.486.62-.838.501-.369-.124-.53-.465-.4-.893a7.548 7.548 0 0 1 2.186-3.466c.497-.452.655-1.085.377-1.843-1.91 1.245-3.194 2.925-3.778 5.096-.862 3.198-.085 6.018 2.092 8.514.194-.142.35-.266.516-.376.158-.102.327-.188.54-.309-.12-.133-.23-.26-.342-.387-1.042-1.185-1.667-2.558-1.848-4.128-.059-.514.161-.828.566-.866.396-.036.662.245.736.749.332 2.28 1.546 3.917 3.61 4.927.047.022.102.029.15.042.843-1.699 2.606-2.286 4.383-1.373v-.775c0-1.045-.002-2.09.001-3.135.006-1.997 1.55-3.299 3.53-2.98.064.01.13.007.295-.074-.368-.537-.713-1.095-1.114-1.61-.238-.306-.557-.552-.852-.812-.358-.312-.555-.693-.557-1.17 0-.367-.003-.735 0-1.1.006-.578.25-1.026.757-1.303.525-.288 1.048-.238 1.536.096 2.38 1.625 3.868 3.852 4.37 6.69.52 2.931-.182 5.586-1.927 7.996-.197.273-.128.74-.177 1.117-.012.094-.002.188-.002.288.378-.124.726-.276 1.09-.351 1.756-.354 3.432.972 3.458 2.765.03 1.969.034 3.939-.001 5.905-.043 2.362-1.883 4.469-4.215 4.862-.305.052-.387.166-.427.456-.497 3.68-3.698 6.636-7.433 6.782-1.69.065-3.397.074-5.08-.076-3.42-.306-6.429-3.338-6.838-6.753-.055-.456-.08-.917-.082-1.377-.007-3.15.05-6.301-.02-9.45-.057-2.503 2.475-3.947 4.486-2.748.021.014.05.015.1.027zM20.08 32.171c.169-.033.3-.054.427-.089a3.831 3.831 0 0 0 2.823-3.664c.017-1.871.01-3.746.002-5.618-.004-.96-.71-1.657-1.642-1.649-.911.008-1.597.704-1.608 1.643-.008.706-.001 1.412-.002 2.117-.001.526-.221.797-.646.801-.43.003-.656-.266-.656-.79v-7.25c0-1.547.004-3.094-.002-4.642-.003-.739-.428-1.342-1.08-1.564-1.098-.379-2.17.398-2.171 1.589-.006 3.762-.002 7.522-.002 11.282 0 .11.003.217-.001.325-.017.441-.28.727-.662.72-.367-.007-.62-.281-.638-.702-.005-.107-.001-.215-.002-.324v-4.723c0-.557-.158-1.051-.618-1.395-.533-.402-1.123-.47-1.724-.18-.606.29-.908.8-.91 1.47-.007 1.696-.002 3.396-.003 5.09 0 .492-.228.76-.638.767-.43.006-.663-.261-.663-.781-.002-1.222.001-2.442-.002-3.665-.002-1.035-.673-1.746-1.634-1.743-.957.001-1.617.716-1.62 1.753-.002 1.237.002 2.472-.001 3.706-.001.456-.238.722-.634.73-.417.008-.664-.26-.666-.738-.004-.637.017-1.276-.007-1.912-.036-.943-.746-1.603-1.666-1.584-.875.018-1.576.698-1.579 1.587-.008 3.422-.041 6.842.012 10.263.049 3.152 2.617 5.984 5.748 6.298 1.531.154 3.087.102 4.632.088 3.053-.03 5.773-2.255 6.353-5.252.177-.91.132-1.862.175-2.794.022-.48.247-.747.665-.742.399.007.633.268.64.724.003.268 0 .539 0 .848zm0-15.608c1.081-1.883 1.382-4.87.247-7.442-.731-1.657-1.832-2.99-3.396-3.968-.266.767-.116 1.368.392 1.83.21.194.41.398.6.61 1.452 1.637 1.966 3.643 2.142 5.748.087 1.042.015 2.098.015 3.222zM9.662 5.825c0-.95-.004-1.9.001-2.848.01-1.511 1.131-2.67 2.585-2.677 1.476-.009 2.615 1.151 2.62 2.683.008 1.91.01 3.825 0 5.735-.007 1.505-1.147 2.657-2.605 2.657-1.455 0-2.589-1.158-2.6-2.664-.006-.962 0-1.924 0-2.886zm3.906-.004c0-.95.006-1.9-.001-2.85C13.56 2.182 13 1.6 12.26 1.604c-.741.004-1.292.581-1.294 1.38-.005 1.9-.005 3.8 0 5.697.002.8.548 1.383 1.285 1.391.755.01 1.312-.578 1.316-1.4.005-.95.001-1.899.001-2.85zm6.502 22.341c0 .189.026.382-.005.567-.059.352-.284.56-.644.558-.358-.006-.596-.214-.63-.57a6.969 6.969 0 0 1-.005-1.097.632.632 0 0 1 .648-.602c.339.003.606.251.638.613.016.177.003.353.003.531h-.005z"/></g></g></svg>